<?xml version="1.0" standalone="no"?><svg xmlns="http://www.w3.org/2000/svg" viewBox="0 0 1440 320"><path fill="#ffd700" fill-opacity="1" d="M0,160L20,138.7C40,117,80,75,120,85.3C160,96,200,160,240,160C280,160,320,96,360,106.7C400,117,440,203,480,245.3C520,288,560,288,600,272C640,256,680,224,720,213.3C760,203,800,213,840,224C880,235,920,245,960,240C1000,235,1040,213,1080,192C1120,171,1160,149,1200,117.3C1240,85,1280,43,1320,21.3C1360,0,1400,0,1420,0L1440,0L1440,320L1420,320C1400,320,1360,320,1320,320C1280,320,1240,320,1200,320C1160,320,1120,320,1080,320C1040,320,1000,320,960,320C920,320,880,320,840,320C800,320,760,320,720,320C680,320,640,320,600,320C560,320,520,320,480,320C440,320,400,320,360,320C320,320,280,320,240,320C200,320,160,320,120,320C80,320,40,320,20,320L0,320Z"></path></svg>