<?xml version="1.0" standalone="no"?><svg xmlns="http://www.w3.org/2000/svg" viewBox="0 0 1440 320"><path fill="#ffe45e" fill-opacity="1" d="M0,96L30,96C60,96,120,96,180,106.7C240,117,300,139,360,160C420,181,480,203,540,202.7C600,203,660,181,720,197.3C780,213,840,267,900,272C960,277,1020,235,1080,197.3C1140,160,1200,128,1260,106.7C1320,85,1380,75,1410,69.3L1440,64L1440,320L1410,320C1380,320,1320,320,1260,320C1200,320,1140,320,1080,320C1020,320,960,320,900,320C840,320,780,320,720,320C660,320,600,320,540,320C480,320,420,320,360,320C300,320,240,320,180,320C120,320,60,320,30,320L0,320Z"></path></svg>